<svg xmlns="http://www.w3.org/2000/svg" xmlns:xlink="http://www.w3.org/1999/xlink" version="1.1" preserveAspectRatio="xMidYMid meet" width="319.46153840510806" height="345.8461528868364" style=""><rect id="backgroundrect" width="100%" height="100%" x="0" y="0" fill="none" stroke="none" class="selected" style=""/><defs><path d="M221.45 131.27C232.49 131.27 241.45 140.22 241.45 151.27C241.45 201.01 241.45 330.25 241.45 380C241.45 391.05 232.49 400 221.45 400C213.16 400 208.29 400 200 400C188.95 400 180 391.05 180 380C180 330.25 180 201.01 180 151.27C180 140.22 188.95 131.27 200 131.27C208.29 131.27 213.16 131.27 221.45 131.27Z" id="ednDPzV4n"/><path d="M126.13 251.93C134.59 251.93 141.45 258.78 141.45 267.24C141.45 294.29 141.45 360.11 141.45 387.16C141.45 395.61 134.59 402.47 126.13 402.47C116.91 402.47 104.54 402.47 95.31 402.47C86.86 402.47 80 395.61 80 387.16C80 360.11 80 294.29 80 267.24C80 258.78 86.86 251.93 95.31 251.93C104.54 251.93 116.91 251.93 126.13 251.93Z" id="a1s3uUi9if"/><path d="M322.71 230C332.26 230 340 237.74 340 247.29C340 277.83 340 352.17 340 382.71C340 392.26 332.26 400 322.71 400C313.88 400 304.68 400 295.85 400C286.3 400 278.55 392.26 278.55 382.71C278.55 352.17 278.55 277.83 278.55 247.29C278.55 237.74 286.3 230 295.85 230C304.68 230 313.88 230 322.71 230Z" id="a3aEC8RkRo"/><path d="M420 162.41C431.05 162.41 440 171.36 440 182.41C440 225.93 440 336.48 440 380C440 391.05 431.05 400 420 400C411.71 400 406.84 400 398.55 400C387.51 400 378.55 391.05 378.55 380C378.55 336.48 378.55 225.93 378.55 182.41C378.55 171.36 387.51 162.41 398.55 162.41C406.84 162.41 411.71 162.41 420 162.41Z" id="c6o6qKgnR"/><path d="M127.53 185.09C127.53 196.71 117.64 206.14 105.45 206.14C93.27 206.14 83.37 196.71 83.37 185.09C83.37 173.47 93.27 164.04 105.45 164.04C117.64 164.04 127.53 173.47 127.53 185.09Z" id="bXq0hpNM"/><path d="M232.53 45.12C232.53 56.74 222.64 66.17 210.45 66.17C198.27 66.17 188.37 56.74 188.37 45.12C188.37 33.5 198.27 24.07 210.45 24.07C222.64 24.07 232.53 33.5 232.53 45.12Z" id="e7VIC7rf9G"/><path d="M336.51 158.95C336.51 170.57 326.61 180 314.43 180C302.24 180 292.35 170.57 292.35 158.95C292.35 147.33 302.24 137.89 314.43 137.89C326.61 137.89 336.51 147.33 336.51 158.95Z" id="b1SgZ2xaz"/><path d="M432.29 74.88C432.29 86.5 422.4 95.93 410.21 95.93C398.03 95.93 388.13 86.5 388.13 74.88C388.13 63.26 398.03 53.83 410.21 53.83C422.4 53.83 432.29 63.26 432.29 74.88Z" id="ejNTvM7XX"/><path d="M194.36 57.2L204.02 64.54L121.55 173.08L111.88 165.74L194.36 57.2Z" id="ba1coN7kf"/><path d="M219.61 64.69L229.14 56.27L303.11 140L293.58 148.42L219.61 64.69Z" id="b1uzprXEMX"/><path d="M392.67 84.7L399.59 92.41L335.66 149.83L328.73 142.11L392.67 84.7Z" id="bomo572Ig"/></defs><g class="currentLayer" style=""><title>Layer 1</title><g id="svg_1" class=""><g id="svg_2"><g id="svg_3"><use xlink:href="#ednDPzV4n" opacity="1" fill="#1191ab" fill-opacity="0.64" id="svg_4" transform="matrix(0.8098291166103321,0,0,0.757603385679437,-57.86326274967817,6.018902355143666) " y="0" x="0"/></g><g id="svg_5"><use xlink:href="#a1s3uUi9if" opacity="1" fill="#1191ab" fill-opacity="0.56" id="svg_6" transform="matrix(0.8098291166103321,0,0,0.757603385679437,-57.86326274967817,6.018902355143666) " y="0" x="0"/></g><g id="svg_7"><use xlink:href="#a3aEC8RkRo" opacity="1" fill="#1191ab" fill-opacity="0.57" id="svg_8" transform="matrix(0.8098291166103321,0,0,0.757603385679437,-57.86326274967817,6.018902355143666) " y="0" x="0"/></g><g id="svg_9"><use xlink:href="#c6o6qKgnR" opacity="1" fill="#1191ab" fill-opacity="0.57" id="svg_10" transform="matrix(0.8098291166103321,0,0,0.757603385679437,-57.86326274967817,6.018902355143666) " y="0" x="0"/></g><g id="svg_11"><use xlink:href="#bXq0hpNM" opacity="1" fill="#ffffff" fill-opacity="0" id="svg_12" transform="matrix(0.8098291166103321,0,0,0.757603385679437,-57.86326274967817,6.018902355143666) " y="0" x="0"/><g id="svg_13"><use xlink:href="#bXq0hpNM" opacity="1" fill-opacity="0" stroke="#b5e6dc" stroke-width="4" stroke-opacity="1" id="svg_14" transform="matrix(0.8098291166103321,0,0,0.757603385679437,-57.86326274967817,6.018902355143666) " y="0" x="0"/></g></g><g id="svg_15"><use xlink:href="#e7VIC7rf9G" opacity="1" fill="#ffffff" fill-opacity="0" id="svg_16" transform="matrix(0.8098291166103321,0,0,0.757603385679437,-57.86326274967817,6.018902355143666) " y="0" x="0"/><g id="svg_17"><use xlink:href="#e7VIC7rf9G" opacity="1" fill-opacity="0" stroke="#b5e6dc" stroke-width="4" stroke-opacity="1" id="svg_18" transform="matrix(0.8098291166103321,0,0,0.757603385679437,-57.86326274967817,6.018902355143666) " y="0" x="0"/></g></g><g id="svg_19"><g id="svg_20"><filter id="shadow1589642" x="283.3500061035156" y="128.88999938964844" width="63.15999984741211" height="61.11000061035156" filterUnits="userSpaceOnUse" primitiveUnits="userSpaceOnUse" transform="translate(80,24.06999969482422) scale(0.8226495385169983,0.7357293963432312) translate(-80,-24.06999969482422) translate(97.24674987792969,32.71583557128906) scale(1,1.0911803245544434) translate(-97.24674987792969,-32.71583557128906) translate(457.2467346191406,29.982059478759766) scale(1.0727273225784302,1) translate(-457.2467346191406,-29.982059478759766) translate(66.24695587158203,29.982059478759766) scale(0.9418886303901672,0.9569532871246338) translate(-66.24695587158203,-29.982059478759766) translate(70.33418273925781,31.33074378967285) scale(1.0179948806762695,0.9708933234214783) translate(-70.33418273925781,-31.33074378967285) translate(69.09088897705078,32.270015716552734) scale(0.997474730014801,0.9945492148399353) translate(-69.09088897705078,-32.270015716552734) translate(69.26580810546875,32.446876525878906) scale(1.0050632953643799,1.1479777097702026) translate(-69.26580810546875,-32.446876525878906) translate(68.91686248779297,28.264379501342773) scale(0.8539043068885803,0.7970972657203674) translate(-68.91686248779297,-28.264379501342773) translate(440.7079162597656,413.8591613769531) scale(1.047197699546814) translate(-440.7079162597656,-413.8591613769531) translate(60.845027923583984,395.206298828125) scale(1,0.9857012033462524) translate(-60.845027923583984,-395.206298828125) translate(60.845027923583984,22.539249420166016) scale(0.8873239755630493,1) translate(-60.845027923583984,-22.539249420166016) translate(428.5713195800781,22.539249420166016) scale(1.120634913444519,1) translate(-428.5713195800781,-22.539249420166016) translate(22.436214447021484,22.539249420166016) scale(1,1.0377161502838135) translate(-22.436214447021484,-22.539249420166016) translate(22.436214447021484,21.72005844116211) scale(1.0368272066116333,1) translate(-22.436214447021484,-21.72005844116211) translate(21.639307022094727,400.12005615234375) scale(1,1.0139789581298828) translate(-21.639307022094727,-400.12005615234375) translate(21.639307022094727,16.20390510559082) scale(1,1.0137861967086792) translate(-21.639307022094727,-16.20390510559082) translate(21.639307022094727,15.983553886413574) scale(0.9890710115432739,1) translate(-21.639307022094727,-15.983553886413574) translate(21.87841796875,15.983553886413574) scale(0.9668508172035217,0.9320061206817627) translate(-21.87841796875,-15.983553886413574) translate(22.6285400390625,17.14962387084961) scale(1,1.043772578239441) translate(-22.6285400390625,-17.14962387084961) translate(22.6285400390625,394.8304138183594) scale(1,0.9748378396034241) translate(-22.6285400390625,-394.8304138183594) translate(22.6285400390625,26.621639251708984) scale(1.028571367263794,1) translate(-22.6285400390625,-26.621639251708984) translate(21.999956130981445,405.0216369628906) scale(1,0.9741883873939514) translate(-21.999956130981445,-405.0216369628906) translate(21.999956130981445,37.3528938293457) scale(1.0305556058883667,1) translate(-21.999956130981445,-37.3528938293457) translate(21.347665786743164,37.3528938293457) scale(1,1.0529910326004028) translate(-21.347665786743164,-37.3528938293457) translate(21.347665786743164,35.4731330871582) scale(1,1.036345362663269) translate(-21.347665786743164,-35.4731330871582) translate(21.347665786743164,412.62908935546875) scale(1,1.005395531654358) translate(-21.347665786743164,-412.62908935546875) translate(381.3476257324219,32.0146598815918) scale(1.0350403785705566,1) translate(-381.3476257324219,-32.0146598815918) translate(8.43748664855957,32.0146598815918) scale(0.9869791865348816,1) translate(-8.43748664855957,-32.0146598815918) "><feFlood/><feComposite in2="SourceAlpha" operator="in"/><feGaussianBlur stdDeviation="1"/><feOffset dx="1" dy="1" result="afterOffset"/><feFlood flood-color="#297180" flood-opacity="0.5"/><feComposite in2="afterOffset" operator="in"/><feMorphology operator="dilate" radius="1"/><feComposite in2="SourceAlpha" operator="out"/></filter><path d="M214.65233328086472,126.43996050889018 C214.65233328086472,135.24331185048524 206.63502502642245,142.3875117774423 196.7713063861086,142.3875117774423 C186.89948945462854,142.3875117774423 178.8902794913524,135.24331185048524 178.8902794913524,126.43996050889018 C178.8902794913524,117.63660916729515 186.89948945462854,110.48483320648121 196.7713063861086,110.48483320648121 C206.63502502642245,110.48483320648121 214.65233328086472,117.63660916729515 214.65233328086472,126.43996050889018 z" id="b3KuuODIVo" fill="white" fill-opacity="1" filter="url(#shadow1589642)"/></g><use xlink:href="#b1SgZ2xaz" opacity="1" fill="#f8f8f8" fill-opacity="0" id="svg_21" transform="matrix(0.8098291166103321,0,0,0.757603385679437,-57.86326274967817,6.018902355143666) " y="0" x="0"/><g id="svg_22"><use xlink:href="#b1SgZ2xaz" opacity="1" fill-opacity="0" stroke="#b5e6dc" stroke-width="4" stroke-opacity="1" id="svg_23" transform="matrix(0.8098291166103321,0,0,0.757603385679437,-57.86326274967817,6.018902355143666) " y="0" x="0"/></g></g><g id="svg_24"><use xlink:href="#ejNTvM7XX" opacity="1" fill="#ffffff" fill-opacity="0" id="svg_25" transform="matrix(0.8098291166103321,0,0,0.757603385679437,-57.86326274967817,6.018902355143666) " y="0" x="0"/><g id="svg_26"><use xlink:href="#ejNTvM7XX" opacity="1" fill-opacity="0" stroke="#b5e6dc" stroke-width="4" stroke-opacity="1" id="svg_27" transform="matrix(0.8098291166103321,0,0,0.757603385679437,-57.86326274967817,6.018902355143666) " y="0" x="0"/></g></g><g id="svg_28"><use xlink:href="#ba1coN7kf" opacity="1" fill="#b5e6dc" fill-opacity="1" id="svg_29" transform="matrix(0.8098291166103321,0,0,0.757603385679437,-57.86326274967817,6.018902355143666) " y="0" x="0"/></g><g id="svg_30"><use xlink:href="#b1uzprXEMX" opacity="1" fill="#b5e6dc" fill-opacity="1" id="svg_31" transform="matrix(0.8098291166103321,0,0,0.757603385679437,-57.86326274967817,6.018902355143666) " y="0" x="0"/></g><g id="svg_32"><use xlink:href="#bomo572Ig" opacity="1" fill="#b5e6dc" fill-opacity="1" id="svg_33" transform="matrix(0.8098291166103321,0,0,0.757603385679437,-57.86326274967817,6.018902355143666) " y="0" x="0"/></g></g></g></g></svg>