<svg xmlns="http://www.w3.org/2000/svg" xmlns:xlink="http://www.w3.org/1999/xlink" version="1.1" preserveAspectRatio="xMidYMid meet" width="370" height="396.3076920255402" style=""><rect id="backgroundrect" width="100%" height="100%" x="0" y="0" fill="none" stroke="none" class="selected" style=""/><defs><path d="M293.09 87.87C297.97 87.87 301.92 91.82 301.92 96.69C301.92 150.65 301.92 303.7 301.92 357.66C301.92 362.53 297.97 366.48 293.09 366.48C245.95 366.48 113.33 366.48 66.18 366.48C61.31 366.48 57.36 362.53 57.36 357.66C57.36 303.7 57.36 150.65 57.36 96.69C57.36 91.82 61.31 87.87 66.18 87.87C113.33 87.87 245.95 87.87 293.09 87.87Z" id="c367tbHMMn"/><path d="M83.37 156.56L210.1 156.56L210.1 176.36L83.37 176.36L83.37 156.56Z" id="b1cQaD3vMb"/><path d="M57.36 133.04L301.92 133.04L301.92 138.98L57.36 138.98L57.36 133.04Z" id="a6FAF1JTz5"/><path d="M82.61 187.38L276.67 187.38L276.67 207.18L82.61 207.18L82.61 187.38Z" id="a1GpYbR6V7"/><path d="M83.37 218.71L224.95 218.71L224.95 238.51L83.37 238.51L83.37 218.71Z" id="d1bVgURya9"/><path d="M370.5 259.31L382.38 266.24L394.26 270.2L409.11 274.16L420 278.12L429.9 283.07L441.78 288.02" id="d1lC1Lbs5n"/><path d="M526.73 255.74L520.05 284.46L493.32 297.33L493.32 312.18L473.27 330" id="fxzDzkoQk"/><path d="M229.05 301.66C229.05 329.82 206.91 352.68 179.64 352.68C152.37 352.68 130.22 329.82 130.22 301.66C130.22 273.5 152.37 250.64 179.64 250.64C206.91 250.64 229.05 273.5 229.05 301.66Z" id="a6npPvGtkE"/><path d="M179.64 292.87C184.99 292.87 189.33 297.21 189.33 302.57C189.33 309.32 189.33 319.88 189.33 326.63C189.33 331.99 184.99 336.33 179.64 336.33C177.7 336.33 181.58 336.33 179.64 336.33C174.28 336.33 169.94 331.99 169.94 326.63C169.94 319.88 169.94 309.32 169.94 302.57C169.94 297.21 174.28 292.87 179.64 292.87C181.58 292.87 177.7 292.87 179.64 292.87Z" id="b3zQu5Qd9d"/><path d="M179.64 273.66C179.64 273.66 179.08 273.66 178.39 273.66C177.7 273.66 177.14 273.66 177.14 273.66C177.14 273.66 177.7 273.66 178.39 273.66C179.08 273.66 179.39 273.66 179.64 273.66Z" id="d54Nbtm2f"/><path d="M189.33 278.12C189.33 283.58 184.99 288.02 179.64 288.02C174.29 288.02 169.94 283.58 169.94 278.12C169.94 272.65 174.29 268.22 179.64 268.22C184.99 268.22 189.33 272.65 189.33 278.12Z" id="e7cTk4yjZ"/></defs><g class="currentLayer" style=""><title>Layer 1</title><g id="svg_1" class=""><g id="svg_2"><g id="svg_3"><use xlink:href="#c367tbHMMn" opacity="1" fill="#1091ab" fill-opacity="0.56" id="svg_4" transform="matrix(1.2625593160869795,0,0,1.237442478619947,-55.220939497380996,-86.24867023713432) " y="0" x="0"/></g><g id="svg_5"><use xlink:href="#b1cQaD3vMb" opacity="1" fill="#ffe8e3" fill-opacity="1" id="svg_6" transform="matrix(1.2625593160869795,0,0,1.237442478619947,-55.220939497380996,-86.24867023713432) " y="0" x="0"/></g><g id="svg_7"><use xlink:href="#a6FAF1JTz5" opacity="1" fill="#f5f5f5" fill-opacity="1" id="svg_8" transform="matrix(1.2625593160869795,0,0,1.237442478619947,-55.220939497380996,-86.24867023713432) " y="0" x="0"/></g><g id="svg_9"><use xlink:href="#a1GpYbR6V7" opacity="1" fill="#ffe8e3" fill-opacity="1" id="svg_10" transform="matrix(1.2625593160869795,0,0,1.237442478619947,-55.220939497380996,-86.24867023713432) " y="0" x="0"/></g><g id="svg_11"><use xlink:href="#d1bVgURya9" opacity="1" fill="#ffe8e3" fill-opacity="1" id="svg_12" transform="matrix(1.2625593160869795,0,0,1.237442478619947,-55.220939497380996,-86.24867023713432) " y="0" x="0"/></g><g id="svg_13"><g id="svg_14"><use xlink:href="#d1lC1Lbs5n" opacity="1" fill-opacity="0" stroke="#48f88c" stroke-width="0" stroke-opacity="1" id="svg_15" transform="matrix(1.2625593160869795,0,0,1.237442478619947,-55.220939497380996,-86.24867023713432) " y="0" x="0"/></g></g><g id="svg_16"><g id="svg_17"><use xlink:href="#fxzDzkoQk" opacity="1" fill-opacity="0" stroke="#48f88c" stroke-width="0" stroke-opacity="1" id="svg_18" transform="matrix(1.2625593160869795,0,0,1.237442478619947,-55.220939497380996,-86.24867023713432) " y="0" x="0"/></g></g><g id="svg_19"><use xlink:href="#a6npPvGtkE" opacity="1" fill="#0f90ab" fill-opacity="0.67" id="svg_20" transform="matrix(1.2625593160869795,0,0,1.237442478619947,-55.220939497380996,-86.24867023713432) " y="0" x="0"/></g><g id="svg_21"><use xlink:href="#b3zQu5Qd9d" opacity="1" fill="#e4eff2" fill-opacity="0.94" id="svg_22" transform="matrix(1.2625593160869795,0,0,1.237442478619947,-55.220939497380996,-86.24867023713432) " y="0" x="0"/></g><g id="svg_23"><use xlink:href="#d54Nbtm2f" opacity="1" fill="#0f90ab" fill-opacity="0.58" id="svg_24" transform="matrix(1.2625593160869795,0,0,1.237442478619947,-55.220939497380996,-86.24867023713432) " y="0" x="0"/></g><g id="svg_25"><use xlink:href="#e7cTk4yjZ" opacity="1" fill="#feffff" fill-opacity="0.97" id="svg_26" transform="matrix(1.2625593160869795,0,0,1.237442478619947,-55.220939497380996,-86.24867023713432) " y="0" x="0"/></g></g></g></g></svg>