<svg xmlns="http://www.w3.org/2000/svg" xmlns:xlink="http://www.w3.org/1999/xlink" version="1.1" preserveAspectRatio="xMidYMid meet" width="421.3076920255403" height="472.6153840510801" style=""><rect id="backgroundrect" width="100%" height="100%" x="0" y="0" fill="none" stroke="none" class="selected" style=""/><defs><path d="M34.99 161.86C34.99 172.11 10 181.08 10 181.08C10 182.36 10 192.61 10 193.9C10 193.9 34.99 202.87 34.99 213.12C34.99 229.77 31.66 233.62 28.33 250.28C23.33 277.19 41.66 290 58.32 290C74.98 290 93.31 290 93.31 290C93.31 287.44 93.31 266.94 93.31 264.37C93.31 264.37 63.32 266.94 63.32 251.56C63.32 240.03 66.65 240.03 69.98 214.4C71.65 202.87 61.65 193.9 51.65 187.49C61.65 181.08 71.65 173.39 69.98 161.86C64.98 136.23 63.32 136.23 63.32 124.7C63.32 109.32 93.31 110.61 93.31 110.61C93.31 108.04 93.31 87.54 93.31 84.98C93.31 84.98 76.65 84.98 58.32 84.98C39.99 84.98 23.33 97.79 28.33 124.7C31.66 141.36 34.99 145.2 34.99 161.86Z" id="a1s6Buwnry"/><path d="M361.31 159.13C361.31 169.38 386.3 178.35 386.3 178.35C386.3 179.63 386.3 189.88 386.3 191.16C386.3 191.16 361.31 200.13 361.31 210.38C361.31 227.04 364.64 230.88 367.97 247.54C372.97 274.45 354.64 287.27 337.98 287.27C321.32 287.27 302.99 287.27 302.99 287.27C302.99 284.7 302.99 264.2 302.99 261.64C302.99 261.64 332.98 264.2 332.98 248.82C332.98 237.29 329.65 237.29 326.32 211.66C324.65 200.13 334.65 191.16 344.65 184.75C334.65 178.35 324.65 170.66 326.32 159.13C331.32 133.5 332.98 133.5 332.98 121.97C332.98 106.59 302.99 107.87 302.99 107.87C302.99 105.31 302.99 84.81 302.99 82.24C302.99 82.24 319.65 82.24 337.98 82.24C356.31 82.24 372.97 95.06 367.97 121.97C364.64 138.62 361.31 142.47 361.31 159.13Z" id="a5yH6OLjq"/><path d="M148.67 185C148.67 200.01 136.36 212.2 121.19 212.2C106.03 212.2 93.71 200.01 93.71 185C93.71 169.99 106.03 157.8 121.19 157.8C136.36 157.8 148.67 169.99 148.67 185Z" id="cOPn1Ehc7"/><path d="M225.26 183.11C225.26 198.12 212.95 210.31 197.78 210.31C182.61 210.31 170.3 198.12 170.3 183.11C170.3 168.09 182.61 155.9 197.78 155.9C212.95 155.9 225.26 168.09 225.26 183.11Z" id="ciTE8akM4"/><path d="M304.14 183.11C304.14 198.12 291.83 210.31 276.66 210.31C261.49 210.31 249.18 198.12 249.18 183.11C249.18 168.09 261.49 155.9 276.66 155.9C291.83 155.9 304.14 168.09 304.14 183.11Z" id="dCMXBK7Fi"/></defs><g class="currentLayer" style=""><title>Layer 1</title><g id="svg_1" class=""><g id="svg_2"><g id="svg_3"><use xlink:href="#a1s6Buwnry" opacity="1" fill="#1191ab" fill-opacity="0.56" id="svg_4" transform="matrix(1.0063740223656292,0,0,1.0333224265506609,-4.231259664300438,47.25953852612302) " y="0" x="0"/><g id="svg_5"><use xlink:href="#a1s6Buwnry" opacity="1" fill-opacity="0" stroke="#000000" stroke-width="1" stroke-opacity="0" id="svg_6" transform="matrix(1.0063740223656292,0,0,1.0333224265506609,-4.231259664300438,47.25953852612302) " y="0" x="0"/></g></g><g id="svg_7"><use xlink:href="#a5yH6OLjq" opacity="1" fill="#1191ab" fill-opacity="0.56" id="svg_8" transform="matrix(1.0063740223656292,0,0,1.0333224265506609,-4.231259664300438,47.25953852612302) " y="0" x="0"/><g id="svg_9"><use xlink:href="#a5yH6OLjq" opacity="1" fill-opacity="0" stroke="#000000" stroke-width="1" stroke-opacity="0" id="svg_10" transform="matrix(1.0063740223656292,0,0,1.0333224265506609,-4.231259664300438,47.25953852612302) " y="0" x="0"/></g></g><g id="svg_11"><use xlink:href="#cOPn1Ehc7" opacity="1" fill="#1091ab" fill-opacity="0.52" id="svg_12" transform="matrix(1.0063740223656292,0,0,1.0333224265506609,-4.231259664300438,47.25953852612302) " y="0" x="0"/></g><g id="svg_13"><use xlink:href="#ciTE8akM4" opacity="1" fill="#1091ab" fill-opacity="0.52" id="svg_14" transform="matrix(1.0063740223656292,0,0,1.0333224265506609,-4.231259664300438,47.25953852612302) " y="0" x="0"/></g><g id="svg_15"><use xlink:href="#dCMXBK7Fi" opacity="1" fill="#1091ab" fill-opacity="0.52" id="svg_16" transform="matrix(1.0063740223656292,0,0,1.0333224265506609,-4.231259664300438,47.25953852612302) " y="0" x="0"/></g></g></g></g></svg>