<svg xmlns="http://www.w3.org/2000/svg" xmlns:xlink="http://www.w3.org/1999/xlink" version="1.1" preserveAspectRatio="xMidYMid meet" width="292.0769231897839" height="316.69230797445994" style=""><rect id="backgroundrect" width="100%" height="100%" x="0" y="0" fill="none" stroke="none" class="selected" style=""/><defs><path d="M404.18 151.42L404.54 151.45L404.89 151.5L405.23 151.57L405.58 151.64L405.91 151.73L406.24 151.84L406.57 151.95L406.89 152.08L407.2 152.22L407.51 152.37L407.81 152.53L408.1 152.71L408.39 152.89L408.67 153.09L408.94 153.29L409.2 153.51L409.45 153.73L409.69 153.97L409.93 154.21L410.15 154.47L410.37 154.73L410.58 155L410.77 155.28L410.96 155.56L411.13 155.85L411.29 156.15L411.44 156.46L411.58 156.77L411.71 157.09L411.83 157.42L411.93 157.75L412.02 158.09L412.1 158.43L412.16 158.78L412.21 159.13L412.25 159.48L412.27 159.84L412.28 160.21L412.28 164.44L412.28 169.02L412.28 173.94L412.28 179.17L412.28 184.7L412.28 190.51L412.28 196.58L412.28 202.89L412.28 209.42L412.28 216.16L412.28 223.08L412.28 230.17L412.28 237.41L412.28 244.78L412.28 252.27L412.28 259.84L412.28 267.49L412.28 275.19L412.28 282.93L412.28 290.69L412.28 298.45L412.28 306.19L412.28 313.9L412.28 321.55L412.28 329.12L412.28 336.6L412.28 343.97L412.28 351.21L412.28 358.3L412.28 365.23L412.28 371.96L412.28 378.5L412.28 384.81L412.28 390.88L412.28 396.69L412.28 402.22L412.28 407.45L412.28 412.37L412.28 416.95L412.28 421.18L412.27 421.54L412.25 421.9L412.21 422.26L412.16 422.61L412.1 422.96L412.02 423.3L411.93 423.64L411.83 423.97L411.71 424.29L411.58 424.61L411.44 424.93L411.29 425.23L411.13 425.53L410.96 425.83L410.77 426.11L410.58 426.39L410.37 426.66L410.15 426.92L409.93 427.17L409.69 427.42L409.45 427.65L409.2 427.88L408.94 428.09L408.67 428.3L408.39 428.49L408.1 428.68L407.81 428.85L407.51 429.02L407.2 429.17L406.89 429.31L406.57 429.43L406.24 429.55L405.91 429.65L405.58 429.74L405.23 429.82L404.89 429.88L404.54 429.93L404.18 429.97L403.82 429.99L403.46 430L399.76 430L395.76 430L391.48 430L386.92 430L382.1 430L377.05 430L371.77 430L366.28 430L360.6 430L354.74 430L348.72 430L342.56 430L336.27 430L329.87 430L323.37 430L316.79 430L310.15 430L303.46 430L296.74 430L290 430L283.26 430L276.54 430L269.85 430L263.21 430L256.63 430L250.13 430L243.73 430L237.44 430L231.28 430L225.26 430L219.4 430L213.72 430L208.23 430L202.95 430L197.9 430L193.08 430L188.52 430L184.24 430L180.24 430L176.54 430L176.18 429.99L175.82 429.97L175.46 429.93L175.11 429.88L174.77 429.82L174.42 429.74L174.09 429.65L173.76 429.55L173.43 429.43L173.11 429.31L172.8 429.17L172.49 429.02L172.19 428.85L171.9 428.68L171.61 428.49L171.33 428.3L171.06 428.09L170.8 427.88L170.55 427.65L170.31 427.42L170.07 427.17L169.85 426.92L169.63 426.66L169.42 426.39L169.23 426.11L169.04 425.83L168.87 425.53L168.71 425.23L168.56 424.93L168.42 424.61L168.29 424.29L168.17 423.97L168.07 423.64L167.98 423.3L167.9 422.96L167.84 422.61L167.79 422.26L167.75 421.9L167.73 421.54L167.72 421.18L167.72 416.95L167.72 412.37L167.72 407.45L167.72 402.22L167.72 396.69L167.72 390.88L167.72 384.81L167.72 378.5L167.72 371.96L167.72 365.23L167.72 358.3L167.72 351.21L167.72 343.97L167.72 336.6L167.72 329.12L167.72 321.55L167.72 313.9L167.72 306.19L167.72 298.45L167.72 290.69L167.72 282.93L167.72 275.19L167.72 267.49L167.72 259.84L167.72 252.27L167.72 244.78L167.72 237.41L167.72 230.17L167.72 223.08L167.72 216.16L167.72 209.42L167.72 202.89L167.72 196.58L167.72 190.51L167.72 184.7L167.72 179.17L167.72 173.94L167.72 169.02L167.72 164.44L167.72 160.21L167.73 159.84L167.75 159.48L167.79 159.13L167.84 158.78L167.9 158.43L167.98 158.09L168.07 157.75L168.17 157.42L168.29 157.09L168.42 156.77L168.56 156.46L168.71 156.15L168.87 155.85L169.04 155.56L169.23 155.28L169.42 155L169.63 154.73L169.85 154.47L170.07 154.21L170.31 153.97L170.55 153.73L170.8 153.51L171.06 153.29L171.33 153.09L171.61 152.89L171.9 152.71L172.19 152.53L172.49 152.37L172.8 152.22L173.11 152.08L173.43 151.95L173.76 151.84L174.09 151.73L174.42 151.64L174.77 151.57L175.11 151.5L175.46 151.45L175.82 151.42L176.18 151.39L176.54 151.39L180.24 151.39L184.24 151.39L188.52 151.39L193.08 151.39L197.9 151.39L202.95 151.39L208.23 151.39L213.72 151.39L219.4 151.39L225.26 151.39L231.28 151.39L237.44 151.39L243.73 151.39L250.13 151.39L256.63 151.39L263.21 151.39L269.85 151.39L276.54 151.39L283.26 151.39L290 151.39L296.74 151.39L303.46 151.39L310.15 151.39L316.79 151.39L323.37 151.39L329.87 151.39L336.27 151.39L342.56 151.39L348.72 151.39L354.74 151.39L360.6 151.39L366.28 151.39L371.77 151.39L377.05 151.39L382.1 151.39L386.92 151.39L391.48 151.39L395.76 151.39L399.76 151.39L403.46 151.39L403.82 151.39L403.82 151.39L404.18 151.42Z" id="d5c6VA7NK"/><path d="M210 187.43L382.57 187.43L382.57 210L210 210L210 187.43Z" id="a1vhpU60rm"/><path d="M197.43 200C197.43 204.02 194.1 207.28 190 207.28C185.9 207.28 182.57 204.02 182.57 200C182.57 195.98 185.9 192.72 190 192.72C194.1 192.72 197.43 195.98 197.43 200Z" id="a12wSTNPhR"/><path d="M197.43 235.3C197.43 239.31 194.1 242.57 190 242.57C185.9 242.57 182.57 239.31 182.57 235.3C182.57 231.28 185.9 228.02 190 228.02C194.1 228.02 197.43 231.28 197.43 235.3Z" id="aV9JYsUv"/><path d="M210 220L340.99 220L340.99 242.57L210 242.57L210 220Z" id="eH17dsWc"/><path d="M197.43 290C197.43 294.02 194.1 297.28 190 297.28C185.9 297.28 182.57 294.02 182.57 290C182.57 285.98 185.9 282.72 190 282.72C194.1 282.72 197.43 285.98 197.43 290Z" id="c7Gdix2Ukf"/><path d="M210 278.71L382.57 278.71L382.57 301.29L210 301.29L210 278.71Z" id="b4sqe1VWjq"/><path d="M197.43 322.72C197.43 326.74 194.1 330 190 330C185.9 330 182.57 326.74 182.57 322.72C182.57 318.71 185.9 315.45 190 315.45C194.1 315.45 197.43 318.71 197.43 322.72Z" id="b2FmRkxTi"/><path d="M210 313.17L340.99 313.17L340.99 335.74L210 335.74L210 313.17Z" id="bWJVD8FW2"/><path d="M411.15 423.47L411.15 423.47L403.74 432.28L390 415.96L397.42 407.16L403.73 414.66L422.58 392.28L430 401.08L411.15 423.47Z" id="b2CxBICExy"/><path d="M441.78 406.98C441.78 432.85 420.8 453.86 394.95 453.86C369.1 453.86 348.12 432.85 348.12 406.98C348.12 381.11 369.1 360.1 394.95 360.1C420.8 360.1 441.78 381.11 441.78 406.98Z" id="a5gRihgxZ3"/><path d="M396.21 419.06L396.21 419.06L385.26 430.3L365.35 411.18L371.85 404.7L385.64 418L417.31 384.36L424.06 390.5L396.21 419.06Z" id="b4lNSbVvy"/></defs><g class="currentLayer" style=""><title>Layer 1</title><g id="svg_1" class=""><g id="svg_2"><g id="svg_3"><use xlink:href="#d5c6VA7NK" opacity="1" fill="#ffffff" fill-opacity="0" id="svg_4" y="-0.19363299012184143" x="-167.63270568847656" transform="matrix(0.885010506327416,0,0,0.8888244672850322,24.551301772198713,-117.00440049400561) "/><g id="svg_5"><use xlink:href="#d5c6VA7NK" opacity="1" fill-opacity="0" stroke="#1191ab" stroke-width="2" stroke-opacity="1" id="svg_6" y="-0.19363299012184143" x="-167.63270568847656" transform="matrix(0.885010506327416,0,0,0.8888244672850322,24.551301772198713,-117.00440049400561) "/></g></g><g id="svg_7"><use xlink:href="#a1vhpU60rm" opacity="1" fill="#11a7ab" fill-opacity="1" id="svg_8" y="-0.19363299012184143" x="-167.63270568847656" transform="matrix(0.885010506327416,0,0,0.8888244672850322,24.551301772198713,-117.00440049400561) "/></g><g id="svg_9"><use xlink:href="#a12wSTNPhR" opacity="1" fill="#f6ecf6" fill-opacity="1" id="svg_10" y="-0.19363299012184143" x="-167.63270568847656" transform="matrix(0.885010506327416,0,0,0.8888244672850322,24.551301772198713,-117.00440049400561) "/><g id="svg_11"><use xlink:href="#a12wSTNPhR" opacity="1" fill-opacity="0" stroke="#1191ab" stroke-width="2" stroke-opacity="1" id="svg_12" y="-0.19363299012184143" x="-167.63270568847656" transform="matrix(0.885010506327416,0,0,0.8888244672850322,24.551301772198713,-117.00440049400561) "/></g></g><g id="svg_13"><use xlink:href="#aV9JYsUv" opacity="1" fill="#f6ecf6" fill-opacity="1" id="svg_14" y="-0.19363299012184143" x="-167.63270568847656" transform="matrix(0.885010506327416,0,0,0.8888244672850322,24.551301772198713,-117.00440049400561) "/><g id="svg_15"><use xlink:href="#aV9JYsUv" opacity="1" fill-opacity="0" stroke="#1191ab" stroke-width="2" stroke-opacity="1" id="svg_16" y="-0.19363299012184143" x="-167.63270568847656" transform="matrix(0.885010506327416,0,0,0.8888244672850322,24.551301772198713,-117.00440049400561) "/></g></g><g id="svg_17"><use xlink:href="#eH17dsWc" opacity="1" fill="#11a7ab" fill-opacity="1" id="svg_18" y="-0.19363299012184143" x="-167.63270568847656" transform="matrix(0.885010506327416,0,0,0.8888244672850322,24.551301772198713,-117.00440049400561) "/></g><g id="svg_19"><use xlink:href="#c7Gdix2Ukf" opacity="1" fill="#f6ecf6" fill-opacity="1" id="svg_20" y="-0.19363299012184143" x="-167.63270568847656" transform="matrix(0.885010506327416,0,0,0.8888244672850322,24.551301772198713,-117.00440049400561) "/><g id="svg_21"><use xlink:href="#c7Gdix2Ukf" opacity="1" fill-opacity="0" stroke="#1191ab" stroke-width="2" stroke-opacity="1" id="svg_22" y="-0.19363299012184143" x="-167.63270568847656" transform="matrix(0.885010506327416,0,0,0.8888244672850322,24.551301772198713,-117.00440049400561) "/></g></g><g id="svg_23"><use xlink:href="#b4sqe1VWjq" opacity="1" fill="#11a7ab" fill-opacity="1" id="svg_24" y="-0.19363299012184143" x="-167.63270568847656" transform="matrix(0.885010506327416,0,0,0.8888244672850322,24.551301772198713,-117.00440049400561) "/></g><g id="svg_25"><use xlink:href="#b2FmRkxTi" opacity="1" fill="#f6ecf6" fill-opacity="1" id="svg_26" y="-0.19363299012184143" x="-167.63270568847656" transform="matrix(0.885010506327416,0,0,0.8888244672850322,24.551301772198713,-117.00440049400561) "/><g id="svg_27"><use xlink:href="#b2FmRkxTi" opacity="1" fill-opacity="0" stroke="#1191ab" stroke-width="2" stroke-opacity="1" id="svg_28" y="-0.19363299012184143" x="-167.63270568847656" transform="matrix(0.885010506327416,0,0,0.8888244672850322,24.551301772198713,-117.00440049400561) "/></g></g><g id="svg_29"><use xlink:href="#bWJVD8FW2" opacity="1" fill="#11a7ab" fill-opacity="1" id="svg_30" y="-0.19363299012184143" x="-167.63270568847656" transform="matrix(0.885010506327416,0,0,0.8888244672850322,24.551301772198713,-117.00440049400561) "/></g><g id="svg_31"><use xlink:href="#b2CxBICExy" opacity="1" fill="#f1efe0" fill-opacity="1" id="svg_32" y="-0.19363299012184143" x="-167.63270568847656" transform="matrix(0.885010506327416,0,0,0.8888244672850322,24.551301772198713,-117.00440049400561) "/></g><g id="svg_33"><use xlink:href="#a5gRihgxZ3" opacity="1" fill="#e0eef1" fill-opacity="1" id="svg_34" y="-0.19363299012184143" x="-167.63270568847656" transform="matrix(0.885010506327416,0,0,0.8888244672850322,24.551301772198713,-117.00440049400561) "/><g id="svg_35"><use xlink:href="#a5gRihgxZ3" opacity="1" fill-opacity="0" stroke="#3fd8a6" stroke-width="2" stroke-opacity="1" id="svg_36" y="-0.19363299012184143" x="-167.63270568847656" transform="matrix(0.885010506327416,0,0,0.8888244672850322,24.551301772198713,-117.00440049400561) "/></g></g><g id="svg_37"><use xlink:href="#b4lNSbVvy" opacity="1" fill="#3fd8a6" fill-opacity="1" id="svg_38" y="-0.19363299012184143" x="-167.63270568847656" transform="matrix(0.885010506327416,0,0,0.8888244672850322,24.551301772198713,-117.00440049400561) "/><g id="svg_39"><use xlink:href="#b4lNSbVvy" opacity="1" fill-opacity="0" stroke="#3fd8a6" stroke-width="2" stroke-opacity="1" id="svg_40" y="-0.19363299012184143" x="-167.63270568847656" transform="matrix(0.885010506327416,0,0,0.8888244672850322,24.551301772198713,-117.00440049400561) "/></g></g></g></g></g></svg>